<?xml version="1.0" encoding="UTF-8"?>
<svg version="1.1" xmlns="http://www.w3.org/2000/svg" width="639" height="639">
<path d="M0 0 C210.87 0 421.74 0 639 0 C639 210.87 639 421.74 639 639 C428.13 639 217.26 639 0 639 C0 428.13 0 217.26 0 0 Z " fill="#FEFEFE" transform="translate(0,0)"/>
<path d="M0 0 C1.11375 0.495 2.2275 0.99 3.375 1.5 C2.83224757 6.05912044 2.1451729 9.77758016 -0.625 13.5 C-3.01611793 14.08267314 -5.2053394 14.2491328 -7.6640625 14.296875 C-8.31117188 14.36390625 -8.95828125 14.4309375 -9.625 14.5 C-11.210869 17.671738 -11.00366445 21.13513822 -11.1875 24.625 C-11.23068359 25.37910156 -11.27386719 26.13320313 -11.31835938 26.91015625 C-11.4244832 28.77321888 -11.52525001 30.63658524 -11.625 32.5 C-7.995 32.5 -4.365 32.5 -0.625 32.5 C-0.625 36.46 -0.625 40.42 -0.625 44.5 C-4.255 44.5 -7.885 44.5 -11.625 44.5 C-11.625 64.3 -11.625 84.1 -11.625 104.5 C-9.315 102.85 -7.005 101.2 -4.625 99.5 C2.00852878 97.28882374 8.1764366 98.64004507 14.375 101.5 C16.9375 103.6875 16.9375 103.6875 18.375 105.5 C21.16184665 104.18347642 23.56256615 102.6674054 26.0625 100.875 C30.53173539 98.06719041 34.20458888 97.64292284 39.375 98.5 C44.07026155 100.06508718 47.86160509 101.98660509 51.375 105.5 C53.45011396 110.31249832 53.64071735 114.80132657 53.5703125 119.9609375 C53.5674826 120.75150543 53.56465271 121.54207336 53.56173706 122.3565979 C53.55060955 124.86289084 53.52551926 127.36881645 53.5 129.875 C53.48996058 131.58202606 53.48083641 133.28905777 53.47265625 134.99609375 C53.4524025 139.16431528 53.41324082 143.33175012 53.375 147.5 C48.095 147.5 42.815 147.5 37.375 147.5 C37.31441406 145.38078125 37.25382812 143.2615625 37.19140625 141.078125 C37.12954957 139.01949738 37.06618983 136.96092112 37.00268555 134.90234375 C36.95944682 133.47465612 36.91776415 132.04692046 36.87768555 130.61914062 C36.81971398 128.56365504 36.75609825 126.50840872 36.69140625 124.453125 C36.65474854 123.21723633 36.61809082 121.98134766 36.58032227 120.70800781 C36.41520181 118.12812342 36.1285613 115.95644894 35.375 113.5 C34.158125 113.273125 32.94125 113.04625 31.6875 112.8125 C31.00300781 112.68488281 30.31851563 112.55726563 29.61328125 112.42578125 C26.36874513 112.53336622 24.8909629 113.4582072 22.375 115.5 C21.84531898 118.13310887 21.65280609 120.15390882 21.66796875 122.79296875 C21.65284744 123.49899734 21.63772614 124.20502594 21.62214661 124.93244934 C21.57920511 127.18445609 21.57042667 129.43512434 21.5625 131.6875 C21.53936028 133.21553054 21.51399602 134.74352912 21.48632812 136.27148438 C21.41922448 140.01505464 21.3983407 143.75487858 21.375 147.5 C15.765 147.5 10.155 147.5 4.375 147.5 C4.31892578 144.06980469 4.31892578 144.06980469 4.26171875 140.5703125 C4.215528 138.35943954 4.16428575 136.14873757 4.11254883 133.93798828 C4.0792627 132.39968221 4.05124222 130.86125293 4.02856445 129.32275391 C3.99508442 127.11307182 3.9427769 124.90452265 3.88671875 122.6953125 C3.88032883 122.00567413 3.8739389 121.31603577 3.86735535 120.60549927 C3.83474286 118.45314611 3.83474286 118.45314611 3.375 115.5 C-0.41082528 112.57549967 -0.41082528 112.57549967 -9.625 113.5 C-9.955 124.72 -10.285 135.94 -10.625 147.5 C-16.565 147.5 -22.505 147.5 -28.625 147.5 C-28.64803038 139.09072081 -28.66618214 130.68146806 -28.67681217 122.2721653 C-28.68192622 118.3630718 -28.68880061 114.45400182 -28.70043945 110.54492188 C-28.76431768 88.51017773 -28.41229223 66.521163 -27.625 44.5 C-29.935 44.5 -32.245 44.5 -34.625 44.5 C-34.625 40.21 -34.625 35.92 -34.625 31.5 C-32.315 31.5 -30.005 31.5 -27.625 31.5 C-27.65980469 30.44941406 -27.69460937 29.39882813 -27.73046875 28.31640625 C-28.14249983 10.75802611 -28.14249983 10.75802611 -22.25 3.625 C-20.950625 2.573125 -20.950625 2.573125 -19.625 1.5 C-18.5421875 0.6028125 -18.5421875 0.6028125 -17.4375 -0.3125 C-11.70672259 -2.73216157 -5.74918816 -2.1444574 0 0 Z " fill="#060606" transform="translate(202.625,236.5)"/>
<path d="M0 0 C1.44981612 0.81171665 2.89234793 1.63743475 4.3125 2.5 C4.3125 1.18 4.3125 -0.14 4.3125 -1.5 C9.9225 -1.5 15.5325 -1.5 21.3125 -1.5 C21.3125 14.34 21.3125 30.18 21.3125 46.5 C16.0325 46.5 10.7525 46.5 5.3125 46.5 C5.3125 44.85 5.3125 43.2 5.3125 41.5 C4.85359375 41.84933594 4.3946875 42.19867188 3.921875 42.55859375 C3.00148438 43.24115234 3.00148438 43.24115234 2.0625 43.9375 C1.45921875 44.38996094 0.8559375 44.84242188 0.234375 45.30859375 C-5.0487468 48.58369974 -11.70496863 48.02356774 -17.6875 47.5 C-24.85729804 45.71057317 -28.8504941 40.52654389 -32.6875 34.5 C-35.84851093 28.31541341 -35.85438447 20.32629559 -33.84765625 13.74609375 C-30.75717459 6.93038503 -26.06912555 1.59556005 -19.26171875 -1.66015625 C-12.50818243 -3.86351029 -6.2936364 -3.15575802 0 0 Z " fill="#070707" transform="translate(141.6875,269.5)"/>
<path d="M0 0 C1.44981612 0.81171665 2.89234793 1.63743475 4.3125 2.5 C4.3125 1.18 4.3125 -0.14 4.3125 -1.5 C9.9225 -1.5 15.5325 -1.5 21.3125 -1.5 C21.3125 14.34 21.3125 30.18 21.3125 46.5 C16.0325 46.5 10.7525 46.5 5.3125 46.5 C5.3125 44.85 5.3125 43.2 5.3125 41.5 C4.85359375 41.84933594 4.3946875 42.19867188 3.921875 42.55859375 C3.00148438 43.24115234 3.00148438 43.24115234 2.0625 43.9375 C1.45921875 44.38996094 0.8559375 44.84242188 0.234375 45.30859375 C-5.04542084 48.58163792 -11.70849347 48.03027179 -17.6875 47.5 C-24.43451296 45.74039695 -28.23822107 41.35625238 -31.6875 35.5 C-34.95540122 29.46979738 -35.66774035 23.2674286 -34.6875 16.5 C-32.37297757 9.1492482 -28.08243631 3.76329088 -21.6875 -0.5 C-14.38208688 -3.99389323 -7.1746236 -3.59750303 0 0 Z " fill="#070707" transform="translate(295.6875,337.5)"/>
<path d="M0 0 C5.62888631 3.85339704 10.12465114 8.30734874 12 15 C13.04950554 22.37933582 12.05097829 28.70375809 8 35 C3.117459 41.07657645 -2.21516782 44.75179906 -10 46 C-20.66349954 46.62094286 -28.85972166 46.62829469 -37.3125 39.625 C-42.20113317 35.07186126 -44.65741568 30.93129548 -45.23828125 24.265625 C-45.43357616 16.33048442 -44.64753501 11.09297132 -39.3046875 5.09765625 C-28.49041257 -5.25690254 -13.13774851 -7.61315683 0 0 Z " fill="#060606" transform="translate(291,271)"/>
<path d="M0 0 C6.70346245 3.78632515 12.33998198 9.03980627 15.19921875 16.2421875 C16.36683049 25.57163422 15.25653454 32.49429922 9.51171875 39.9296875 C4.499136 45.49227933 -1.94332897 47.89901325 -9.26953125 48.55078125 C-18.5775195 48.95935124 -26.1219655 48.13606792 -33.80078125 42.2421875 C-39.86778122 35.39497832 -41.10536656 29.45678387 -41.015625 20.47265625 C-40.56179597 13.64871797 -37.57932197 9.12933141 -32.80078125 4.2421875 C-23.38969022 -2.48002038 -10.86796346 -4.21861798 0 0 Z " fill="#050505" transform="translate(424.80078125,336.7578125)"/>
<path d="M0 0 C210.87 0 421.74 0 639 0 C639 0.99 639 1.98 639 3 C428.13 3 217.26 3 0 3 C0 2.01 0 1.02 0 0 Z " fill="#F5F5F5" transform="translate(0,0)"/>
<path d="M0 0 C4.7595161 1.92910619 8.23692973 4.24115068 11.5390625 8.265625 C12.81291377 12.0871788 12.66259438 15.6724697 12.63671875 19.65234375 C12.6353038 20.46935257 12.63388885 21.28636139 12.63243103 22.12812805 C12.62683544 24.73649768 12.61428379 27.34478134 12.6015625 29.953125 C12.59654693 31.72200397 12.59198412 33.49088428 12.58789062 35.25976562 C12.57771853 39.59511182 12.55814229 43.93027222 12.5390625 48.265625 C7.2590625 48.265625 1.9790625 48.265625 -3.4609375 48.265625 C-3.52152344 46.06261719 -3.58210938 43.85960937 -3.64453125 41.58984375 C-3.70634809 39.45512554 -3.76972439 37.32045892 -3.83325195 35.18579102 C-3.8765508 33.70276485 -3.91822949 32.21969046 -3.95825195 30.73657227 C-4.01607708 28.60418161 -4.07973582 26.47203258 -4.14453125 24.33984375 C-4.19951782 22.41531372 -4.19951782 22.41531372 -4.25561523 20.4519043 C-4.32654984 17.24450949 -4.32654984 17.24450949 -5.4609375 14.265625 C-7.0170922 13.96043738 -8.58163858 13.69786585 -10.1484375 13.453125 C-11.01855469 13.30230469 -11.88867188 13.15148437 -12.78515625 12.99609375 C-15.6642243 13.04332562 -15.6642243 13.04332562 -18.08398438 15.34179688 C-21.00128607 18.9302937 -21.10955907 20.74098107 -21.16796875 25.31640625 C-21.18309006 25.97521286 -21.19821136 26.63401947 -21.21379089 27.31278992 C-21.25652316 29.401587 -21.26549015 31.4889352 -21.2734375 33.578125 C-21.29659364 35.00068917 -21.32196133 36.42321917 -21.34960938 37.84570312 C-21.4164577 41.31979009 -21.43755336 44.7898917 -21.4609375 48.265625 C-27.0709375 48.265625 -32.6809375 48.265625 -38.4609375 48.265625 C-38.4609375 32.425625 -38.4609375 16.585625 -38.4609375 0.265625 C-32.8509375 0.265625 -27.2409375 0.265625 -21.4609375 0.265625 C-21.1309375 1.585625 -20.8009375 2.905625 -20.4609375 4.265625 C-19.99945313 3.9046875 -19.53796875 3.54375 -19.0625 3.171875 C-12.81687607 -1.27165191 -7.39740744 -2.20748032 0 0 Z " fill="#070706" transform="translate(484.4609375,335.734375)"/>
<path d="M0 0 C5.28 0 10.56 0 16 0 C16 5.61 16 11.22 16 17 C19.3 17 22.6 17 26 17 C26 21.29 26 25.58 26 30 C22.7 30 19.4 30 16 30 C16.33 36.93 16.66 43.86 17 51 C20.465 50.505 20.465 50.505 24 50 C27.44419134 59.41002278 27.44419134 59.41002278 27 64 C23.20947276 65.74893812 20.16690915 66.29655519 16 66.3125 C14.989375 66.32925781 13.97875 66.34601563 12.9375 66.36328125 C8.37548765 65.79909621 5.82106075 63.88948248 2.75 60.5625 C-0.00870451 56.5229684 -0.12334156 53.18821389 -0.09765625 48.359375 C-0.09443359 47.28945313 -0.09121094 46.21953125 -0.08789062 45.1171875 C-0.07951172 44.00601563 -0.07113281 42.89484375 -0.0625 41.75 C-0.05798828 40.62335938 -0.05347656 39.49671875 -0.04882812 38.3359375 C-0.03705397 35.55723783 -0.0206084 32.77864591 0 30 C-2.31 30 -4.62 30 -7 30 C-7 25.71 -7 21.42 -7 17 C-4.69 17 -2.38 17 0 17 C0 11.39 0 5.78 0 0 Z " fill="#030303" transform="translate(329,319)"/>
<path d="M0 0 C0.639375 0.33 1.27875 0.66 1.9375 1 C1.35642368 4.7602985 0.28550504 7.53035032 -1.625 10.8125 C-2.08003906 11.60269531 -2.53507812 12.39289063 -3.00390625 13.20703125 C-3.35324219 13.79871094 -3.70257813 14.39039063 -4.0625 15 C-4.79855469 14.89300781 -5.53460938 14.78601563 -6.29296875 14.67578125 C-12.3018637 13.87547179 -12.3018637 13.87547179 -18.125 15.125 C-21.95309142 18.8296046 -22.32460998 23.034721 -22.4765625 28.17578125 C-22.51523438 29.33271484 -22.55390625 30.48964844 -22.59375 31.68164062 C-22.6246875 32.87982422 -22.655625 34.07800781 -22.6875 35.3125 C-22.72617188 36.53001953 -22.76484375 37.74753906 -22.8046875 39.00195312 C-22.89877705 42.00105742 -22.98171991 45.00050771 -23.0625 48 C-28.3425 48 -33.6225 48 -39.0625 48 C-39.0625 32.49 -39.0625 16.98 -39.0625 1 C-33.7825 1 -28.5025 1 -23.0625 1 C-22.7325 2.65 -22.4025 4.3 -22.0625 6 C-21.59199219 5.57847656 -21.12148437 5.15695312 -20.63671875 4.72265625 C-20.01410156 4.17480469 -19.39148438 3.62695312 -18.75 3.0625 C-18.13511719 2.51722656 -17.52023438 1.97195313 -16.88671875 1.41015625 C-12.16776941 -2.23768253 -5.41885843 -1.76942316 0 0 Z " fill="#040404" transform="translate(244.0625,268)"/>
<path d="M0 0 C5.28 0 10.56 0 16 0 C16 15.84 16 31.68 16 48 C10.72 48 5.44 48 0 48 C0 32.16 0 16.32 0 0 Z " fill="#030303" transform="translate(361,336)"/>
<path d="M0 0 C3.22618733 2.0790985 4.8669302 3.80039529 7 7 C7.43145362 12.35002483 7.45651329 15.64735364 4 20 C-0.2258785 22.81725233 -4.03624688 22.79958384 -9 22 C-11.82424288 19.80977082 -13.41508603 18.16982793 -15 15 C-15.47210258 10.27897422 -15.73364092 7.34044655 -12.6875 3.5625 C-8.65864464 -0.27896674 -5.43646095 -0.46866043 0 0 Z " fill="#F3F3F3" transform="translate(416,349)"/>
<path d="M0 0 C3.5386994 1.65139305 4.81070153 2.71605229 7 6 C7.70764306 10.85476051 7.709087 14.80188749 5.1875 19.0625 C1.56746586 22.26881595 -2.11578809 22.46693599 -6.7734375 22.40625 C-9 22 -9 22 -12 19.4375 C-14.19685646 15.66165297 -15 13.36156097 -15 9 C-13.76648839 5.43652203 -12.64446777 3.53705647 -9.75 1.125 C-6.23834029 -0.31158806 -3.76692609 -0.40359922 0 0 Z " fill="#F4F4F4" transform="translate(278,281)"/>
<path d="M0 0 C5.53846154 3.07692308 5.53846154 3.07692308 7 6 C7.53118252 10.91996928 7.75105553 14.77327597 5.125 19.0625 C1.56729402 22.30629075 -1.07412967 22.33052231 -5.73828125 22.29296875 C-9.0542278 21.86344199 -10.74987627 20.39075646 -13 18 C-14.85726616 14.28546768 -14.58501089 10.04420575 -14 6 C-9.80794679 0.5944577 -6.7438041 -0.56198368 0 0 Z " fill="#F6F6F6" transform="translate(293,349)"/>
<path d="M0 0 C2.90899633 4.31941879 2.98615302 7.99489021 2.0625 13.0625 C0.26603146 15.99673195 -0.8816071 17.53455355 -3.9375 19.0625 C-6.99651174 19.48318924 -9.88508326 19.55278455 -12.9375 19.0625 C-15.9375 16.625 -15.9375 16.625 -17.9375 14.0625 C-18.2675 13.7325 -18.5975 13.4025 -18.9375 13.0625 C-19.49229171 9.29784198 -19.73632775 5.61222584 -17.9609375 2.16796875 C-16.25668188 0.01935201 -14.5257298 -1.6433851 -12.0625 -2.875 C-7.31761465 -3.01455545 -4.02158478 -2.65253465 0 0 Z " fill="#F7F7F7" transform="translate(143.9375,283.9375)"/>
<path d="M0 0 C2.75569447 2.18159145 4.43588747 3.87177494 6 7 C6.23076923 12.53846154 6.23076923 12.53846154 5 15 C4.34 15 3.68 15 3 15 C3 15.66 3 16.32 3 17 C2.34 17 1.68 17 1 17 C0.67 17.99 0.34 18.98 0 20 C-8.03095559 20.78734859 -8.03095559 20.78734859 -12 17.5625 C-12.66 16.716875 -13.32 15.87125 -14 15 C-14.33 14.67 -14.66 14.34 -15 14 C-15.58968059 6.92383292 -15.58968059 6.92383292 -13.125 3.0625 C-9.24699241 -0.70144855 -5.21240222 -0.82822281 0 0 Z " fill="#EF965F" transform="translate(521,365)"/>
<path d="M0 0 C3.99062431 2.48472834 5.68655935 3.96748964 7.0625 8.5 C6.99287744 12.39886354 6.41262199 13.98422251 4 17 C0.31540813 19.45639458 -2.72230442 19.80884302 -7 19 C-10.34664567 16.57902228 -11.69586639 14.91240083 -13 11 C-13 7.34076304 -12.24243223 5.86103423 -10 3 C-6.82698111 -0.17301889 -4.42458357 -0.70793337 0 0 Z " fill="#0A0A0A" transform="translate(372,307)"/>
<path d="M0 0 C5.4470262 1.91654626 5.4470262 1.91654626 7.15234375 5.2578125 C8.06772916 8.2191054 8.23390024 10.59555693 8.1875 13.6875 C8.18105469 14.64011719 8.17460938 15.59273438 8.16796875 16.57421875 C8 19 8 19 7 21 C6.34 21 5.68 21 5 21 C5 21.66 5 22.32 5 23 C2.2543075 25.7456925 0.72327296 26.92909089 -3.1875 27.3125 C-6 27 -6 27 -8 26 C-8 25.34 -8 24.68 -8 24 C-7.04287109 23.92652344 -7.04287109 23.92652344 -6.06640625 23.8515625 C-5.24011719 23.77679688 -4.41382813 23.70203125 -3.5625 23.625 C-2.73878906 23.55539062 -1.91507813 23.48578125 -1.06640625 23.4140625 C-0.38449219 23.27742188 0.29742188 23.14078125 1 23 C1.33 22.34 1.66 21.68 2 21 C2.66 21 3.32 21 4 21 C4 20.34 4 19.68 4 19 C4.66 19 5.32 19 6 19 C6.43066146 12.65287037 6.43066146 12.65287037 4 7 C-0.02951778 4.31365482 -3.26712146 4.21118691 -8 5 C-11.07227784 7.04818523 -12.62520024 8.47543858 -13.51953125 12.11328125 C-13.77950346 14.06480595 -13.90002248 16.03377552 -14 18 C-16 16 -16 16 -16.3125 12.6875 C-15.88040076 7.58872891 -14.26660293 5.33898024 -10.8125 1.6875 C-7.16018516 -0.5038889 -4.10543371 -0.65879758 0 0 Z " fill="#FBE6D2" transform="translate(520,361)"/>
<path d="M0 0 C2.75569447 2.18159145 4.43588747 3.87177494 6 7 C6.1875 10 6.1875 10 6 13 C5.34 13.66 4.68 14.32 4 15 C3.95101562 14.36191406 3.90203125 13.72382813 3.8515625 13.06640625 C3.77679687 12.24011719 3.70203125 11.41382813 3.625 10.5625 C3.55539062 9.73878906 3.48578125 8.91507812 3.4140625 8.06640625 C3.27742187 7.38449219 3.14078125 6.70257813 3 6 C2.34 5.67 1.68 5.34 1 5 C1.33 4.34 1.66 3.68 2 3 C-1.96 3 -5.92 3 -10 3 C-12.17756053 7.35512106 -12.1816487 8.47034665 -11 13 C-10.34 13.66 -9.68 14.32 -9 15 C-9 15.99 -9 16.98 -9 18 C-5.7 18 -2.4 18 1 18 C0.67 18.66 0.34 19.32 0 20 C-8.03095559 20.78734859 -8.03095559 20.78734859 -12 17.5625 C-12.66 16.716875 -13.32 15.87125 -14 15 C-14.33 14.67 -14.66 14.34 -15 14 C-15.58968059 6.92383292 -15.58968059 6.92383292 -13.125 3.0625 C-9.24699241 -0.70144855 -5.21240222 -0.82822281 0 0 Z " fill="#DAA583" transform="translate(521,365)"/>
<path d="M0 0 C0.33 0 0.66 0 1 0 C1 4.95 1 9.9 1 15 C2.629375 14.87625 4.25875 14.7525 5.9375 14.625 C6.85402344 14.55539062 7.77054688 14.48578125 8.71484375 14.4140625 C9.84599609 14.20910156 9.84599609 14.20910156 11 14 C11.33 13.34 11.66 12.68 12 12 C12.33 12.99 12.66 13.98 13 15 C18.61 15 24.22 15 30 15 C30 15.33 30 15.66 30 16 C24.72 16 19.44 16 14 16 C14 31.51 14 47.02 14 63 C13.67 63 13.34 63 13 63 C12.505 45.675 12.505 45.675 12 28 C11.67 28 11.34 28 11 28 C11 24.04 11 20.08 11 16 C7.37 16 3.74 16 0 16 C0 10.72 0 5.44 0 0 Z " fill="#B7B7B7" transform="translate(191,253)"/>
<path d="M0 0 C0.33 0 0.66 0 1 0 C1 15.51 1 31.02 1 47 C0.34 46.34 -0.32 45.68 -1 45 C-2.485 45.495 -2.485 45.495 -4 46 C-4.99 41.71 -5.98 37.42 -7 33 C-4.03 32.505 -4.03 32.505 -1 32 C-0.67 21.44 -0.34 10.88 0 0 Z " fill="#C0C0C0" transform="translate(360,337)"/>
<path d="M0 0 C1.14726563 -0.00773437 2.29453125 -0.01546875 3.4765625 -0.0234375 C4.91128906 0.17378906 4.91128906 0.17378906 6.375 0.375 C7.035 1.365 7.695 2.355 8.375 3.375 C7.385 3.045 6.395 2.715 5.375 2.375 C0.64477099 1.75493253 -2.58137424 1.6792495 -6.625 4.375 C-9.20297862 8.24196793 -9.39092131 10.77145252 -9.625 15.375 C-11.625 13.375 -11.625 13.375 -11.8125 9.9375 C-11.51435722 4.27278714 -11.51435722 4.27278714 -8.9765625 1.7109375 C-5.86367708 -0.05751236 -3.56207051 -0.02412237 0 0 Z " fill="#FBE6D3" transform="translate(515.625,363.625)"/>
<path d="M0 0 C3.05875192 0.44930819 5.44721548 1.72848554 8.07421875 3.3046875 C8.07421875 4.2946875 8.07421875 5.2846875 8.07421875 6.3046875 C7.5534375 5.98757813 7.03265625 5.67046875 6.49609375 5.34375 C3.40013166 4.01548239 0.68017754 3.88104503 -2.67578125 3.6796875 C-4.43148437 3.56753906 -4.43148437 3.56753906 -6.22265625 3.453125 C-7.1146875 3.40414063 -8.00671875 3.35515625 -8.92578125 3.3046875 C-6.19864907 0.11318297 -4.22063228 -0.14042769 0 0 Z " fill="#FDF7EA" transform="translate(517.92578125,360.6953125)"/>
<path d="M0 0 C0.33 0.66 0.66 1.32 1 2 C-0.65 3.32 -2.3 4.64 -4 6 C-7.16115776 4.63016497 -7.9927092 4.0109362 -10 1 C-6.59437148 0.22157062 -3.49234244 -0.09978121 0 0 Z " fill="#EAEAEA" transform="translate(227,337)"/>
<path d="M0 0 C-0.6875 2.4375 -0.6875 2.4375 -2 5 C-4.625 5.8125 -4.625 5.8125 -7 6 C-7.66 4.35 -8.32 2.7 -9 1 C-2.25 -1.125 -2.25 -1.125 0 0 Z " fill="#0F0F0F" transform="translate(420,370)"/>
<path d="M0 0 C0.66 0.33 1.32 0.66 2 1 C0.375 3 0.375 3 -2 5 C-5.14522722 5.31452272 -7.15916359 5.42041821 -10 4 C-10 3.34 -10 2.68 -10 2 C-9.04287109 1.90912109 -9.04287109 1.90912109 -8.06640625 1.81640625 C-6.82697266 1.69072266 -6.82697266 1.69072266 -5.5625 1.5625 C-4.73878906 1.48128906 -3.91507813 1.40007812 -3.06640625 1.31640625 C-1.01337975 1.21069185 -1.01337975 1.21069185 0 0 Z " fill="#FEF3E2" transform="translate(522,383)"/>
<path d="M0 0 C2 1 2 1 4 4 C1.69 5.32 -0.62 6.64 -3 8 C-4 5 -4 5 -3 2 C-2.01 1.34 -1.02 0.68 0 0 Z " fill="#EDEDED" transform="translate(118,265)"/>
<path d="M0 0 C0.33 0.99 0.66 1.98 1 3 C0.01 3.66 -0.98 4.32 -2 5 C-1.67 5.66 -1.34 6.32 -1 7 C-2.6875 7.75 -2.6875 7.75 -5 8 C-7.75 6.0625 -7.75 6.0625 -10 4 C-7.98177083 3.54427083 -5.96354167 3.08854167 -3.9453125 2.6328125 C-1.79280036 2.09525572 -1.79280036 2.09525572 0 0 Z " fill="#151515" transform="translate(298,367)"/>
<path d="M0 0 C1.45742463 -0.08096803 2.91612807 -0.13917774 4.375 -0.1875 C5.18710937 -0.22230469 5.99921875 -0.25710938 6.8359375 -0.29296875 C7.55007813 -0.19628906 8.26421875 -0.09960938 9 0 C9.66 0.99 10.32 1.98 11 3 C7.37 3 3.74 3 0 3 C0 2.01 0 1.02 0 0 Z " fill="#DE9C76" transform="translate(512,365)"/>
<path d="M0 0 C0.33 0 0.66 0 1 0 C1.12375 1.0725 1.2475 2.145 1.375 3.25 C1.89643936 6.37863615 2.40088254 8.33480424 4 11 C1.03 10.505 1.03 10.505 -2 10 C-1.54177532 6.53058454 -1.10868317 3.32604951 0 0 Z " fill="#1B1B1B" transform="translate(124,290)"/>
<path d="M0 0 C0.33 0 0.66 0 1 0 C1 3.3 1 6.6 1 10 C1.99 9.67 2.98 9.34 4 9 C4.33 9.66 4.66 10.32 5 11 C4.34 11 3.68 11 3 11 C2.67 12.32 2.34 13.64 2 15 C-0.35119399 11.47320901 -0.21443452 9.97120515 -0.125 5.8125 C-0.10695313 4.72582031 -0.08890625 3.63914062 -0.0703125 2.51953125 C-0.04710938 1.68808594 -0.02390625 0.85664063 0 0 Z " fill="#3B3B3B" transform="translate(107,286)"/>
<path d="M0 0 C1.67542976 0.28604898 3.34385343 0.61781233 5 1 C4.25 5.75 4.25 5.75 2 8 C1.814375 6.824375 1.814375 6.824375 1.625 5.625 C1.20882007 2.85942178 1.20882007 2.85942178 -1 1 C-0.67 0.67 -0.34 0.34 0 0 Z " fill="#1A1A1A" transform="translate(241,268)"/>
<path d="M0 0 C2.3431213 0.25561323 4.67843403 0.59270772 7 1 C7.33 1.66 7.66 2.32 8 3 C7.34 3 6.68 3 6 3 C5.67 3.66 5.34 4.32 5 5 C2.69 4.34 0.38 3.68 -2 3 C-1.34 2.01 -0.68 1.02 0 0 Z " fill="#F2F2F2" transform="translate(369,304)"/>
<path d="M0 0 C2 1.375 2 1.375 4 3 C4 3.66 4 4.32 4 5 C4.66 5.33 5.32 5.66 6 6 C3.03 5.505 3.03 5.505 0 5 C-0.33 4.01 -0.66 3.02 -1 2 C-0.67 1.34 -0.34 0.68 0 0 Z " fill="#FAEDD9" transform="translate(506,379)"/>
<path d="M0 0 C0.66 0.33 1.32 0.66 2 1 C2 4 2 4 0 7 C-0.99 6.34 -1.98 5.68 -3 5 C-2.625 3.0625 -2.625 3.0625 -2 1 C-1.34 0.67 -0.68 0.34 0 0 Z " fill="#EAEAEA" transform="translate(292,266)"/>
<path d="M0 0 C0.66 0 1.32 0 2 0 C1.67 1.65 1.34 3.3 1 5 C-0.32 5.33 -1.64 5.66 -3 6 C-2.42655063 3.13275314 -2.1385485 2.1385485 0 0 Z " fill="#E0996C" transform="translate(523,377)"/>
<path d="M0 0 C0.66 0.33 1.32 0.66 2 1 C1.04882866 2.1725131 0.08882991 3.33787015 -0.875 4.5 C-1.40867188 5.1496875 -1.94234375 5.799375 -2.4921875 6.46875 C-2.98976562 6.9740625 -3.48734375 7.479375 -4 8 C-4.66 8 -5.32 8 -6 8 C-4.73058503 4.08597051 -3.48832306 2.20927127 0 0 Z " fill="#222222" transform="translate(184,237)"/>
<path d="M0 0 C1.65 0 3.3 0 5 0 C4.67 1.65 4.34 3.3 4 5 C3.01 5.33 2.02 5.66 1 6 C0.67 4.02 0.34 2.04 0 0 Z " fill="#E1E1E1" transform="translate(355,377)"/>
<path d="M0 0 C0 0.66 0 1.32 0 2 C0.99 2.33 1.98 2.66 3 3 C2.01 4.485 2.01 4.485 1 6 C-0.65 4.35 -2.3 2.7 -4 1 C-2 0 -2 0 0 0 Z " fill="#ECECEC" transform="translate(252,336)"/>
<path d="M0 0 C1.32 0.33 2.64 0.66 4 1 C4 1.66 4 2.32 4 3 C3.34 3 2.68 3 2 3 C2 3.66 2 4.32 2 5 C0.35 4.67 -1.3 4.34 -3 4 C-2.01 2.68 -1.02 1.36 0 0 Z " fill="#0D0D0D" transform="translate(211,336)"/>
<path d="M0 0 C1.32 0 2.64 0 4 0 C4 0.66 4 1.32 4 2 C3.34 2 2.68 2 2 2 C2 2.66 2 3.32 2 4 C0.35 4.33 -1.3 4.66 -3 5 C-2.34 4.67 -1.68 4.34 -1 4 C-0.34786708 1.97536745 -0.34786708 1.97536745 0 0 Z " fill="#E6E6E6" transform="translate(203,246)"/>
</svg>
